<?xml version="1.0" encoding="UTF-8"?>
<svg width="300px" height="56px" viewBox="0 0 300 56" version="1.1" xmlns="http://www.w3.org/2000/svg" xmlns:xlink="http://www.w3.org/1999/xlink">
    <!-- Generator: Sketch 43.2 (39069) - http://www.bohemiancoding.com/sketch -->
    <title>Group 2</title>
    <desc>Created with Sketch.</desc>
    <defs></defs>
    <g id="Page-1" stroke="none" stroke-width="1" fill="none" fill-rule="evenodd">
        <g id="Mobile-Portrait-Copy" transform="translate(-10.000000, -131.000000)">
            <g id="Group-2" transform="translate(10.000000, 131.000000)">
                <rect id="Rectangle-3" fill="#F62C00" x="0" y="0" width="300" height="56" rx="4"></rect>
                <text id="Sign-in-with-Google" font-family="Arial-BoldMT, Arial" font-size="18" font-weight="bold" fill="#FFFFFF">
                    <tspan x="95.0073242" y="33">Sign in with Google</tspan>
                </text>
                <g id="Group" transform="translate(9.000000, 9.000000)" fill-rule="nonzero" fill="#FFFFFF">
                    <path d="M19.5919405,21.5826744 L17.8375238,20.216 C17.3032262,19.7714884 16.5724762,19.1846977 16.5724762,18.1105349 C16.5724762,17.0319535 17.3032262,16.346186 17.9375119,15.7112326 C19.9813214,14.0975581 22.023369,12.3800465 22.023369,8.76076744 C22.023369,5.03897674 19.6888452,3.08109302 18.5700357,2.15230233 L21.5868571,2.15230233 L24.7534405,0.156418605 L15.1603095,0.156418605 C12.5280238,0.156418605 8.73464286,0.781209302 5.95744048,3.08109302 C3.86429762,4.89272093 2.84327381,7.39055814 2.84327381,9.63918605 C2.84327381,13.4564186 5.76495238,17.3257907 10.92425,17.3257907 C11.4114167,17.3257907 11.9443929,17.2776279 12.4808929,17.2276977 C12.2399524,17.815814 11.996369,18.3053953 11.996369,19.1365349 C11.996369,20.6525581 12.7729286,21.5822326 13.4574286,22.4628605 C11.2651786,22.6139767 7.17271429,22.8574419 4.15589286,24.7176744 C1.28266667,26.4316512 0.408321429,28.9263953 0.408321429,30.6872093 C0.408321429,34.3113488 3.81364286,37.6871628 10.8749167,37.6871628 C19.248369,37.6871628 23.6813214,33.0392326 23.6813214,28.4381395 C23.6817619,25.0574651 21.7348571,23.3934186 19.5919405,21.5826744 Z M13.2142857,15.9542558 C9.02535714,15.9542558 7.12778571,10.5220233 7.12778571,7.24430233 C7.12778571,5.9682093 7.36872619,4.6505814 8.1972619,3.62148837 C8.97822619,2.64144186 10.3384167,2.00560465 11.6083095,2.00560465 C15.6465952,2.00560465 17.7410595,7.48644186 17.7410595,11.0116047 C17.7410595,11.8935581 17.6441548,13.4564186 16.5244643,14.5862558 C15.7412976,15.3701163 14.430881,15.9542558 13.2142857,15.9542558 Z M13.2622976,35.6360465 C8.05322619,35.6360465 4.69415476,33.1364419 4.69415476,29.6607674 C4.69415476,26.1859767 7.8087619,25.0106279 8.88044048,24.6213488 C10.92425,23.9316047 13.5543333,23.8352791 13.9930476,23.8352791 C14.4797738,23.8352791 14.7233571,23.8352791 15.1109762,23.8843256 C18.8140595,26.5279767 20.4213571,27.8456047 20.4213571,30.3483023 C20.4213571,33.3790233 17.9375119,35.6360465 13.2622976,35.6360465 Z" id="Shape"></path>
                    <polygon id="Shape" points="31.8873929 15.8795814 31.8873929 10.9859767 29.4779881 10.9859767 29.4779881 15.8795814 24.6076429 15.8795814 24.6076429 18.3235116 29.4779881 18.3235116 29.4779881 23.2471628 31.8873929 23.2471628 31.8873929 18.3235116 36.7824048 18.3235116 36.7824048 15.8795814"></polygon>
                </g>
                <path d="M55.5,0.5 L55.5,55.5" id="Line" stroke="#C82500" stroke-linecap="square"></path>
            </g>
        </g>
    </g>
</svg>