<!DOCTYPE svg PUBLIC "-//W3C//DTD SVG 20010904//EN" "http://www.w3.org/TR/2001/REC-SVG-20010904/DTD/svg10.dtd">
<svg version="1.0" xmlns="http://www.w3.org/2000/svg" width="693px" height="500px" viewBox="0 0 6930 5000" preserveAspectRatio="xMidYMid meet">
<g id="layer1" fill="#101010" stroke="none">
 <path d="M2885 3915 c-233 -42 -476 -145 -570 -240 -79 -80 -167 -265 -215 -454 -24 -94 -22 -116 16 -161 48 -57 64 -60 210 -45 695 72 1560 72 2278 -1 142 -14 150 -14 185 4 20 10 47 34 59 53 32 46 26 100 -27 259 -54 162 -122 292 -186 355 -128 128 -499 252 -725 243 -109 -5 -124 -11 -238 -98 -83 -64 -121 -80 -190 -80 -59 0 -98 19 -194 91 -45 34 -98 68 -117 75 -46 17 -195 16 -286 -1z m154 -317 c88 -23 156 -118 137 -193 -15 -58 -146 -90 -371 -89 -187 0 -228 11 -233 64 -6 57 15 106 60 144 93 80 262 110 407 74z m1116 0 c60 -15 152 -67 185 -104 32 -37 56 -103 46 -129 -14 -38 -73 -50 -241 -50 -270 1 -387 42 -370 133 24 136 183 199 380 150z"/>
 <path d="M2905 2849 c-551 -29 -1006 -97 -1240 -186 -73 -27 -155 -95 -155 -127 0 -9 16 -34 36 -56 61 -67 263 -132 559 -180 l141 -22 123 -452 c68 -248 134 -485 147 -526 42 -136 130 -210 258 -218 70 -4 77 -3 242 63 243 96 242 96 403 102 192 7 248 -4 461 -90 169 -69 178 -71 260 -72 75 0 90 3 132 27 75 44 115 100 147 203 15 49 81 287 147 527 l119 437 40 6 c365 55 566 113 649 187 57 49 58 72 9 120 -47 45 -74 58 -196 97 -242 77 -663 134 -1195 161 -230 11 -861 11 -1087 -1z"/>
 </g>
<g id="layer2" fill="none" stroke="none">
 <path d="M0 2500 l0 -2500 3465 0 3465 0 0 2500 0 2500 -3465 0 -3465 0 0 -2500z m3171 1396 c19 -7 72 -41 117 -75 96 -72 135 -91 194 -91 69 0 107 16 190 80 114 87 129 93 238 98 217 9 597 -115 715 -233 53 -53 126 -195 176 -344 65 -197 62 -258 -15 -295 -32 -15 -47 -15 -183 -1 -717 72 -1584 72 -2278 0 -148 -16 -172 -10 -209 54 -19 32 -19 35 -1 110 35 154 116 345 185 436 99 131 482 272 745 274 50 0 106 -6 126 -13z m821 -1066 c532 -27 954 -84 1195 -161 156 -50 218 -91 211 -140 -11 -75 -256 -161 -610 -214 -56 -9 -107 -20 -113 -25 -6 -5 -17 -33 -25 -62 -7 -29 -20 -58 -28 -64 -9 -7 -11 -13 -5 -17 9 -6 -184 -735 -230 -871 -22 -65 -58 -110 -115 -143 -42 -25 -57 -28 -132 -28 -82 1 -91 3 -260 72 -213 86 -269 97 -461 90 -161 -6 -160 -6 -403 -102 -165 -66 -172 -67 -242 -63 -115 8 -192 64 -229 167 -8 24 -74 260 -146 525 -72 264 -137 486 -143 492 -6 7 -72 22 -146 34 -280 44 -507 115 -555 171 -33 40 -32 54 8 93 109 109 656 209 1342 245 226 12 857 12 1087 1z"/>
 <path d="M2850 3629 c-69 -8 -140 -30 -178 -55 -12 -8 -30 -13 -40 -12 -10 2 -16 -3 -14 -11 2 -8 -8 -26 -22 -40 -49 -51 -63 -143 -26 -176 57 -51 341 -60 511 -15 133 36 157 137 55 236 -70 68 -153 89 -286 73z"/>
 <path d="M3965 3630 c-100 -15 -184 -81 -206 -163 -13 -48 -6 -69 36 -105 44 -40 144 -62 305 -69 235 -10 330 30 301 127 -40 134 -254 237 -436 210z"/>
 </g>

</svg>
